<?xml version="1.0" encoding="UTF-8"?>
<svg xmlns="http://www.w3.org/2000/svg" xmlns:xlink="http://www.w3.org/1999/xlink" width="194px" height="px" viewBox="0 0 194 150" version="1.1">
<g id="surface1">
<path style="fill-rule:evenodd;fill:rgb(72.156863%,96.078431%,96.078431%);fill-opacity:1;stroke-width:41.67;stroke-linecap:butt;stroke-linejoin:miter;stroke:rgb(42.745098%,92.941176%,92.941176%);stroke-opacity:1;stroke-miterlimit:2.61313;" d="M 2998.952964 3073.059896 L 3861.428802 3073.059896 L 3861.428802 3912.213542 L 2998.952964 3912.213542 Z M 2998.952964 3073.059896 " transform="matrix(0.0176364,0,0,0.0176471,0,0)"/>
<path style="fill-rule:evenodd;fill:rgb(72.156863%,96.078431%,96.078431%);fill-opacity:1;stroke-width:41.67;stroke-linecap:butt;stroke-linejoin:miter;stroke:rgb(42.745098%,92.941176%,92.941176%);stroke-opacity:1;stroke-miterlimit:2.61313;" d="M 3511.920103 3376.09375 L 4327.661888 3376.09375 L 4327.661888 4273.463542 L 3511.920103 4273.463542 Z M 3511.920103 3376.09375 " transform="matrix(0.0176364,0,0,0.0176471,0,0)"/>
<path style="fill-rule:evenodd;fill:rgb(72.156863%,96.078431%,96.078431%);fill-opacity:1;stroke-width:41.67;stroke-linecap:butt;stroke-linejoin:miter;stroke:rgb(42.745098%,92.941176%,92.941176%);stroke-opacity:1;stroke-miterlimit:2.61313;" d="M 3861.428802 3073.059896 L 5120.14739 3073.059896 L 5120.14739 3784.049479 L 3861.428802 3784.049479 Z M 3861.428802 3073.059896 " transform="matrix(0.0176364,0,0,0.0176471,0,0)"/>
<path style="fill-rule:evenodd;fill:rgb(72.156863%,96.078431%,96.078431%);fill-opacity:1;stroke-width:41.67;stroke-linecap:butt;stroke-linejoin:miter;stroke:rgb(42.745098%,92.941176%,92.941176%);stroke-opacity:1;stroke-miterlimit:2.61313;" d="M 4327.661888 3702.591146 L 5621.375644 3702.591146 L 5621.375644 4611.471354 L 4327.661888 4611.471354 Z M 4327.661888 3702.591146 " transform="matrix(0.0176364,0,0,0.0176471,0,0)"/>
<path style="fill-rule:evenodd;fill:rgb(72.156863%,96.078431%,96.078431%);fill-opacity:1;stroke-width:41.67;stroke-linecap:butt;stroke-linejoin:miter;stroke:rgb(42.745098%,92.941176%,92.941176%);stroke-opacity:1;stroke-miterlimit:2.61313;" d="M 5120.14739 3049.817708 L 6518.625161 3049.817708 L 6518.625161 3784.049479 L 5120.14739 3784.049479 Z M 5120.14739 3049.817708 " transform="matrix(0.0176364,0,0,0.0176471,0,0)"/>
<path style="fill-rule:evenodd;fill:rgb(72.156863%,96.078431%,96.078431%);fill-opacity:1;stroke-width:41.67;stroke-linecap:butt;stroke-linejoin:miter;stroke:rgb(42.745098%,92.941176%,92.941176%);stroke-opacity:1;stroke-miterlimit:2.61313;" d="M 5516.390142 3469.505208 L 6716.857281 3469.505208 L 6716.857281 4495.039062 L 5516.390142 4495.039062 Z M 5516.390142 3469.505208 " transform="matrix(0.0176364,0,0,0.0176471,0,0)"/>
<path style="fill-rule:evenodd;fill:rgb(72.156863%,96.078431%,96.078431%);fill-opacity:1;stroke-width:41.67;stroke-linecap:butt;stroke-linejoin:miter;stroke:rgb(42.745098%,92.941176%,92.941176%);stroke-opacity:1;stroke-miterlimit:2.61313;" d="M 6367.127094 3109.804688 L 7567.594233 3109.804688 L 7567.594233 4018.684896 L 6367.127094 4018.684896 Z M 6367.127094 3109.804688 " transform="matrix(0.0176364,0,0,0.0176471,0,0)"/>
<path style="fill-rule:evenodd;fill:rgb(72.156863%,96.078431%,96.078431%);fill-opacity:1;stroke-width:41.67;stroke-linecap:butt;stroke-linejoin:miter;stroke:rgb(42.745098%,92.941176%,92.941176%);stroke-opacity:1;stroke-miterlimit:2.61313;" d="M 4234.415271 4413.359375 L 5260.128061 4413.359375 L 5260.128061 5054.401042 L 4234.415271 5054.401042 Z M 4234.415271 4413.359375 " transform="matrix(0.0176364,0,0,0.0176471,0,0)"/>
<path style="fill-rule:evenodd;fill:rgb(72.156863%,96.078431%,96.078431%);fill-opacity:1;stroke-width:41.67;stroke-linecap:butt;stroke-linejoin:miter;stroke:rgb(42.745098%,92.941176%,92.941176%);stroke-opacity:1;stroke-miterlimit:2.61313;" d="M 4980.388209 4495.039062 L 6116.623711 4495.039062 L 6116.623711 5345.703125 L 4980.388209 5345.703125 Z M 4980.388209 4495.039062 " transform="matrix(0.0176364,0,0,0.0176471,0,0)"/>
<path style="fill-rule:evenodd;fill:rgb(42.745098%,92.941176%,92.941176%);fill-opacity:1;stroke-width:41.67;stroke-linecap:butt;stroke-linejoin:miter;stroke:rgb(42.745098%,92.941176%,92.941176%);stroke-opacity:1;stroke-miterlimit:2.61313;" d="M 5621.375644 4157.03125 L 6367.127094 4157.03125 L 6367.127094 4763.098958 L 5621.375644 4763.098958 Z M 5621.375644 4157.03125 " transform="matrix(0.0176364,0,0,0.0176471,0,0)"/>
<path style="fill-rule:evenodd;fill:rgb(42.745098%,92.941176%,92.941176%);fill-opacity:1;stroke-width:41.67;stroke-linecap:butt;stroke-linejoin:miter;stroke:rgb(42.745098%,92.941176%,92.941176%);stroke-opacity:1;stroke-miterlimit:2.61313;" d="M 4234.415271 4028.867188 L 4980.388209 4028.867188 L 4980.388209 4611.471354 L 4234.415271 4611.471354 Z M 4234.415271 4028.867188 " transform="matrix(0.0176364,0,0,0.0176471,0,0)"/>
</g>
</svg>
