<?xml version="1.0" encoding="UTF-8"?>
<svg xmlns="http://www.w3.org/2000/svg" xmlns:xlink="http://www.w3.org/1999/xlink" width="194px" height="px" viewBox="0 0 194 150" version="1.1">
<g id="surface1">
<path style="fill-rule:evenodd;fill:rgb(100%,80%,0%);fill-opacity:1;stroke-width:41.67;stroke-linecap:butt;stroke-linejoin:miter;stroke:rgb(67.843137%,45.098039%,0%);stroke-opacity:1;stroke-miterlimit:2.61313;" d="M 5691.365979 1493.697917 C 6687.620812 1493.697917 6914.424936 2770.690104 7652.202803 3172.890625 C 8714.239691 3752.174479 10092.562017 3632.421875 10092.562017 4666.588542 C 10092.562017 7170.325521 1289.948454 7071.380208 1289.948454 4666.588542 C 1289.948454 3832.304688 2948.23212 3630.872396 3678.479381 3064.427083 C 4482.260793 2441.09375 4417.807668 1493.697917 5691.365979 1493.697917 Z M 5691.365979 1493.697917 " transform="matrix(0.0176364,0,0,0.0176471,0,0)"/>
<path style="fill:none;stroke-width:41.67;stroke-linecap:butt;stroke-linejoin:miter;stroke:rgb(67.843137%,45.098039%,0%);stroke-opacity:1;stroke-miterlimit:2.61313;" d="M 1337.56846 4964.53125 C 2718.548647 5412.330729 4313.043653 5821.835938 5732.341334 5827.148438 C 7191.506927 5832.903646 8827.420264 5358.984375 10062.439594 4913.841146 " transform="matrix(0.0176364,0,0,0.0176471,0,0)"/>
<path style=" stroke:none;fill-rule:evenodd;fill:rgb(67.843137%,45.098039%,0%);fill-opacity:1;" d="M 86.722656 58.78125 C 87.1875 56.789062 86.503906 54.925781 85.203125 54.621094 C 83.898438 54.320312 82.46875 55.691406 82.003906 57.683594 C 81.542969 59.679688 82.222656 61.542969 83.527344 61.84375 C 84.832031 62.148438 86.261719 60.777344 86.722656 58.78125 Z M 86.722656 58.78125 "/>
<path style=" stroke:none;fill-rule:evenodd;fill:rgb(67.843137%,45.098039%,0%);fill-opacity:1;" d="M 108.144531 58.78125 C 107.683594 56.789062 108.363281 54.925781 109.667969 54.621094 C 110.96875 54.320312 112.402344 55.691406 112.863281 57.683594 C 113.328125 59.679688 112.644531 61.542969 111.34375 61.84375 C 110.039062 62.148438 108.609375 60.777344 108.144531 58.78125 Z M 108.144531 58.78125 "/>
</g>
</svg>
