<?xml version="1.0" encoding="UTF-8"?>
<svg xmlns="http://www.w3.org/2000/svg" xmlns:xlink="http://www.w3.org/1999/xlink" width="194px" height="px" viewBox="0 0 194 150" version="1.1">
<g id="surface1">
<path style="fill-rule:evenodd;fill:rgb(47.058824%,25.098039%,3.137255%);fill-opacity:1;stroke-width:41.67;stroke-linecap:butt;stroke-linejoin:miter;stroke:rgb(30.980392%,16.470588%,1.568627%);stroke-opacity:1;stroke-miterlimit:2.61313;" d="M 5429.566688 2551.549479 C 7123.06701 2551.549479 8576.030928 2676.393229 8576.030928 3772.317708 C 8576.030928 4322.382812 7449.540915 4267.265625 6890.725677 4626.744792 C 6336.340206 4983.346354 6352.951836 5756.757812 5509.302513 5756.757812 C 4656.129188 5756.757812 4647.712629 5007.03125 4091.998228 4643.125 C 3544.25741 4284.752604 2442.795586 4316.184896 2442.795586 3772.317708 C 2442.795586 2676.393229 3735.844878 2551.549479 5429.566688 2551.549479 Z M 5429.566688 2551.549479 " transform="matrix(0.0176364,0,0,0.0176471,0,0)"/>
<path style=" stroke:none;fill-rule:evenodd;fill:rgb(30.980392%,16.470588%,1.568627%);fill-opacity:1;" d="M 78.402344 76.324219 C 84.679688 80.023438 83.238281 87.207031 80.988281 91.804688 C 77.714844 87.226562 77.546875 86.679688 73.007812 82.519531 C 67.621094 79.433594 66.667969 79.113281 61.671875 77.65625 C 63.714844 74.183594 72.125 72.621094 78.402344 76.324219 Z M 78.402344 76.324219 "/>
<path style=" stroke:none;fill-rule:evenodd;fill:rgb(30.980392%,16.470588%,1.568627%);fill-opacity:1;" d="M 115.210938 76.234375 C 108.933594 79.933594 110.375 87.117188 112.621094 91.714844 C 116.15625 87.253906 115.632812 86.039062 120.605469 82.433594 C 125.554688 78.851562 126.945312 79.027344 131.941406 77.566406 C 129.894531 74.09375 121.488281 72.53125 115.210938 76.234375 Z M 115.210938 76.234375 "/>
</g>
</svg>
