<?xml version="1.0" encoding="UTF-8"?>
<svg xmlns="http://www.w3.org/2000/svg" xmlns:xlink="http://www.w3.org/1999/xlink" width="194px" height="px" viewBox="0 0 194 150" version="1.1">
<g id="surface1">
<path style="fill-rule:evenodd;fill:rgb(27.058824%,12.156863%,1.176471%);fill-opacity:1;stroke-width:41.67;stroke-linecap:butt;stroke-linejoin:miter;stroke:rgb(0%,0%,0%);stroke-opacity:1;stroke-miterlimit:2.61313;" d="M 4210.273035 2725.755208 L 6478.314272 2725.755208 C 6643.987597 2725.755208 6778.209568 2860.117188 6778.209568 3025.690104 L 6778.209568 5648.515625 C 6778.209568 5814.309896 6643.987597 5948.450521 6478.314272 5948.450521 L 4210.273035 5948.450521 C 4044.59971 5948.450521 3910.15625 5814.309896 3910.15625 5648.515625 L 3910.15625 3025.690104 C 3910.15625 2860.117188 4044.59971 2725.755208 4210.273035 2725.755208 Z M 4210.273035 2725.755208 " transform="matrix(0.0176364,0,0,0.0176471,0,0)"/>
<path style="fill-rule:evenodd;fill:rgb(0%,0%,0%);fill-opacity:1;stroke-width:6.94;stroke-linecap:butt;stroke-linejoin:miter;stroke:rgb(0%,0%,0%);stroke-opacity:1;stroke-miterlimit:2.61313;" d="M 4751.369201 4063.619792 C 4863.442332 4063.619792 4954.031089 4235.833333 4954.031089 4448.554688 C 4954.031089 4661.276042 4863.442332 4833.710938 4751.369201 4833.710938 C 4639.517558 4833.710938 4548.707313 4661.276042 4548.707313 4448.554688 C 4548.707313 4235.833333 4639.517558 4063.619792 4751.369201 4063.619792 Z M 4751.369201 4063.619792 " transform="matrix(0.0176364,0,0,0.0176471,0,0)"/>
<path style="fill-rule:evenodd;fill:rgb(0%,0%,0%);fill-opacity:1;stroke-width:6.94;stroke-linecap:butt;stroke-linejoin:miter;stroke:rgb(0%,0%,0%);stroke-opacity:1;stroke-miterlimit:2.61313;" d="M 5921.492429 4063.619792 C 6033.344072 4063.619792 6124.154317 4235.833333 6124.154317 4448.554688 C 6124.154317 4661.276042 6033.344072 4833.710938 5921.492429 4833.710938 C 5809.419298 4833.710938 5718.830541 4661.276042 5718.830541 4448.554688 C 5718.830541 4235.833333 5809.419298 4063.619792 5921.492429 4063.619792 Z M 5921.492429 4063.619792 " transform="matrix(0.0176364,0,0,0.0176471,0,0)"/>
<path style="fill-rule:evenodd;fill:rgb(92.156863%,85.882353%,15.686275%);fill-opacity:1;stroke-width:20.83;stroke-linecap:butt;stroke-linejoin:miter;stroke:rgb(47.058824%,43.137255%,1.960784%);stroke-opacity:1;stroke-miterlimit:2.61313;" d="M 5336.763048 4330.130208 C 5708.420586 4330.130208 6009.423325 4602.838542 6009.423325 4939.296875 C 6009.423325 5275.755208 5708.420586 5548.463542 5336.763048 5548.463542 C 4965.326997 5548.463542 4664.102771 5275.755208 4664.102771 4939.296875 C 4664.102771 4602.838542 4965.326997 4330.130208 5336.763048 4330.130208 Z M 5337.206024 4466.705729 C 5620.046714 4466.705729 5849.508698 4678.984375 5849.508698 4940.625 C 5849.508698 5202.265625 5620.046714 5414.544271 5337.206024 5414.544271 C 5054.143847 5414.544271 4824.903351 5202.265625 4824.903351 4940.625 C 4824.903351 4678.984375 5054.143847 4466.705729 5337.206024 4466.705729 Z M 5337.206024 4466.705729 " transform="matrix(0.0176364,0,0,0.0176471,0,0)"/>
<path style=" stroke:none;fill-rule:evenodd;fill:rgb(27.058824%,12.156863%,1.176471%);fill-opacity:1;" d="M 87.371094 73.0625 L 100.800781 73.0625 L 100.800781 86.773438 L 87.371094 86.773438 Z M 87.371094 73.0625 "/>
</g>
</svg>
