<?xml version="1.0" encoding="UTF-8"?>
<svg xmlns="http://www.w3.org/2000/svg" xmlns:xlink="http://www.w3.org/1999/xlink" width="194px" height="px" viewBox="0 0 194 150" version="1.1">
<g id="surface1">
<path style="fill-rule:evenodd;fill:rgb(96.078431%,63.137255%,71.372549%);fill-opacity:1;stroke-width:41.67;stroke-linecap:butt;stroke-linejoin:miter;stroke:rgb(81.176471%,24.313725%,38.431373%);stroke-opacity:1;stroke-miterlimit:2.61313;" d="M 8318.661405 4393.880208 C 8318.661405 3029.895833 7033.364207 1924.010417 5447.507249 1924.010417 C 3861.871778 1924.010417 2576.353093 3029.895833 2576.353093 4393.880208 C 2576.353093 5757.643229 3861.871778 6863.528646 5447.507249 6863.528646 C 7033.364207 6863.528646 8318.661405 5757.643229 8318.661405 4393.880208 Z M 8318.661405 4393.880208 " transform="matrix(0.0176364,0,0,0.0176471,0,0)"/>
<path style=" stroke:none;fill-rule:evenodd;fill:rgb(81.176471%,24.313725%,38.431373%);fill-opacity:1;" d="M 88.257812 79.527344 C 88.257812 72.351562 84.980469 66.535156 80.9375 66.535156 C 76.898438 66.535156 73.621094 72.351562 73.621094 79.527344 C 73.621094 86.703125 76.898438 92.519531 80.9375 92.519531 C 84.980469 92.519531 88.257812 86.703125 88.257812 79.527344 Z M 88.257812 79.527344 "/>
<path style=" stroke:none;fill-rule:evenodd;fill:rgb(81.176471%,24.313725%,38.431373%);fill-opacity:1;" d="M 116.476562 79.527344 C 116.476562 72.351562 113.199219 66.535156 109.15625 66.535156 C 105.117188 66.535156 101.839844 72.351562 101.839844 79.527344 C 101.839844 86.703125 105.117188 92.519531 109.15625 92.519531 C 113.199219 92.519531 116.476562 86.703125 116.476562 79.527344 Z M 116.476562 79.527344 "/>
</g>
</svg>
