<?xml version="1.0" encoding="UTF-8"?>
<svg xmlns="http://www.w3.org/2000/svg" xmlns:xlink="http://www.w3.org/1999/xlink" width="194px" height="px" viewBox="0 0 194 150" version="1.1">
<g id="surface1">
<path style="fill-rule:evenodd;fill:rgb(41.568627%,87.058824%,54.509804%);fill-opacity:1;stroke-width:20.83;stroke-linecap:butt;stroke-linejoin:miter;stroke:rgb(39.607843%,81.176471%,51.372549%);stroke-opacity:1;stroke-miterlimit:2.61313;" d="M 6287.612758 3870.377604 C 6323.050902 3870.377604 6401.236308 3849.570312 6434.23808 3838.723958 C 6460.152223 3884.765625 6421.613241 4050.559896 6421.613241 4122.942708 C 6421.613241 4218.125 6398.356959 4335 6362.475838 4313.971354 C 6325.487274 4292.5 6346.750161 4269.257812 6315.963273 4277.447917 C 6306.882249 4279.882812 6324.601321 4383.697917 6287.612758 4375.729167 C 6242.429124 4365.989583 6235.341495 4049.453125 6216.293492 4029.088542 C 6193.03721 4004.960938 6181.741302 4156.809896 6173.546231 4169.205729 C 6132.792365 4231.848958 6090.709568 4207.721354 6084.064916 4136.002604 C 6080.964079 4104.127604 6083.400451 4084.205729 6083.400451 4071.367188 C 6083.400451 4027.539062 6065.45989 3867.5 6076.091334 3831.419271 C 6152.283344 3863.958333 6236.891914 3870.377604 6287.612758 3870.377604 Z M 6287.612758 3870.377604 " transform="matrix(0.0176364,0,0,0.0176471,0,0)"/>
<path style="fill-rule:evenodd;fill:rgb(27.843137%,12.156863%,0.392157%);fill-opacity:1;stroke-width:41.67;stroke-linecap:butt;stroke-linejoin:miter;stroke:rgb(16.078431%,7.843137%,1.568627%);stroke-opacity:1;stroke-miterlimit:2.61313;" d="M 4691.345844 3490.3125 C 4691.345844 3283.346354 4500.865818 3115.559896 4266.088112 3115.559896 C 4031.310406 3115.559896 3841.051869 3283.346354 3841.051869 3490.3125 C 3841.051869 3697.278646 4031.310406 3865.065104 4266.088112 3865.065104 C 4500.865818 3865.065104 4691.345844 3697.278646 4691.345844 3490.3125 Z M 4691.345844 3490.3125 " transform="matrix(0.0176364,0,0,0.0176471,0,0)"/>
<path style="fill-rule:evenodd;fill:rgb(27.843137%,12.156863%,0.392157%);fill-opacity:1;stroke-width:41.67;stroke-linecap:butt;stroke-linejoin:miter;stroke:rgb(16.078431%,7.843137%,1.568627%);stroke-opacity:1;stroke-miterlimit:2.61313;" d="M 6699.138209 3485.664062 C 6699.138209 3273.828125 6504.228415 3102.057292 6264.134987 3102.057292 C 6023.820071 3102.057292 5828.910277 3273.828125 5828.910277 3485.664062 C 5828.910277 3697.5 6023.820071 3869.049479 6264.134987 3869.049479 C 6504.228415 3869.049479 6699.138209 3697.5 6699.138209 3485.664062 Z M 6699.138209 3485.664062 " transform="matrix(0.0176364,0,0,0.0176471,0,0)"/>
</g>
</svg>
