<?xml version="1.0" encoding="UTF-8"?>
<svg xmlns="http://www.w3.org/2000/svg" xmlns:xlink="http://www.w3.org/1999/xlink" width="194px" height="150px" viewBox="0 0 194 150" version="1.1">
<g id="surface1">
<path style=" stroke:none;fill-rule:evenodd;fill:rgb(0.784314%,36.862745%,10.980392%);fill-opacity:1;" d="M 72.894531 67.582031 C 72.292969 67.226562 65.542969 70.34375 64.949219 72.554688 C 63.476562 77.996094 70 82.078125 71.117188 85.839844 C 69.167969 85.398438 68.824219 84.921875 67.140625 83.804688 C 60.667969 79.515625 56.953125 71.121094 64.3125 65.679688 C 67.921875 63.007812 69.460938 61.308594 73.988281 61.324219 C 75.714844 61.625 76.871094 63.269531 76.570312 65 C 76.265625 66.726562 74.621094 67.882812 72.894531 67.582031 Z M 72.894531 67.582031 "/>
<path style=" stroke:none;fill-rule:evenodd;fill:rgb(0.784314%,36.862745%,10.980392%);fill-opacity:1;" d="M 68.445312 83.273438 C 68.621094 83.796875 69.140625 86.027344 68.90625 86.457031 C 68.6875 86.457031 68.78125 86.484375 68.625 86.414062 L 68.632812 86.425781 C 67.132812 85.050781 67.839844 85.335938 66.957031 84.222656 C 66.695312 83.808594 66.820312 83.265625 67.230469 83.003906 C 67.640625 82.742188 68.1875 82.863281 68.445312 83.273438 Z M 68.445312 83.273438 "/>
<path style=" stroke:none;fill-rule:evenodd;fill:rgb(0.784314%,36.862745%,10.980392%);fill-opacity:1;" d="M 68.769531 82.335938 C 69.34375 82.539062 71.789062 84.09375 72.042969 84.585938 C 71.199219 85.371094 69.671875 84.167969 68.464844 84.074219 C 67.984375 83.992188 67.664062 83.535156 67.746094 83.054688 C 67.832031 82.574219 68.289062 82.253906 68.769531 82.335938 Z M 68.769531 82.335938 "/>
<path style=" stroke:none;fill-rule:evenodd;fill:rgb(0.784314%,36.862745%,10.980392%);fill-opacity:1;" d="M 98.390625 68.089844 C 98.988281 67.730469 105.761719 70.792969 106.375 72.996094 C 107.890625 78.425781 101.40625 82.5625 100.316406 86.332031 C 102.265625 85.875 102.605469 85.394531 104.277344 84.265625 C 110.714844 79.917969 114.359375 71.496094 106.953125 66.117188 C 103.320312 63.476562 101.769531 61.789062 97.242188 61.839844 C 95.515625 62.160156 94.375 63.8125 94.691406 65.539062 C 95.007812 67.265625 96.664062 68.40625 98.390625 68.089844 Z M 98.390625 68.089844 "/>
<path style=" stroke:none;fill-rule:evenodd;fill:rgb(0.784314%,36.862745%,10.980392%);fill-opacity:1;" d="M 102.851562 84.214844 C 102.679688 84.738281 102.183594 86.972656 102.417969 87.398438 C 102.636719 87.398438 102.542969 87.425781 102.699219 87.351562 L 102.691406 87.367188 C 104.179688 85.976562 103.476562 86.269531 104.347656 85.148438 C 104.605469 84.734375 104.480469 84.1875 104.066406 83.929688 C 103.652344 83.671875 103.109375 83.800781 102.851562 84.214844 Z M 102.851562 84.214844 "/>
<path style=" stroke:none;fill-rule:evenodd;fill:rgb(0.784314%,36.862745%,10.980392%);fill-opacity:1;" d="M 102.519531 83.277344 C 101.949219 83.484375 99.515625 85.058594 99.265625 85.554688 C 100.117188 86.332031 101.636719 85.117188 102.839844 85.011719 C 103.320312 84.925781 103.636719 84.464844 103.546875 83.984375 C 103.460938 83.507812 103 83.191406 102.519531 83.277344 Z M 102.519531 83.277344 "/>
<path style=" stroke:none;fill-rule:evenodd;fill:rgb(0.784314%,36.862745%,10.980392%);fill-opacity:1;" d="M 73.457031 108.78125 C 71.300781 107.847656 69.226562 106.929688 66.972656 106.851562 C 67.75 107.984375 68.820312 109.203125 69.378906 109.765625 L 69.335938 109.863281 C 75 112.035156 70.511719 120.027344 59.722656 115.914062 L 61.578125 115.207031 C 62.574219 114.941406 66.949219 114.570312 68.066406 113.339844 C 65.269531 111.882812 60.550781 107.742188 61.351562 104.476562 C 62.574219 99.480469 73.074219 102.371094 75.855469 103.28125 C 77.371094 103.945312 78.066406 105.710938 77.40625 107.230469 C 76.742188 108.75 74.976562 109.445312 73.457031 108.78125 Z M 68.238281 113.089844 C 68.273438 113.023438 68.296875 112.957031 68.3125 112.886719 L 68.28125 112.886719 C 68.242188 112.957031 68.230469 113.023438 68.238281 113.089844 Z M 68.238281 113.089844 "/>
<path style=" stroke:none;fill-rule:evenodd;fill:rgb(0.784314%,36.862745%,10.980392%);fill-opacity:1;" d="M 62.75 117.074219 C 62.324219 116.980469 61.515625 117.269531 60.644531 117.246094 C 60.90625 115.898438 61.445312 115.601562 62.707031 115.132812 C 63.242188 115.121094 63.683594 115.546875 63.695312 116.082031 C 63.710938 116.617188 63.285156 117.0625 62.75 117.074219 Z M 62.75 117.074219 "/>
<path style=" stroke:none;fill-rule:evenodd;fill:rgb(0.784314%,36.862745%,10.980392%);fill-opacity:1;" d="M 64.109375 117.421875 C 63.167969 117.96875 63.6875 117.765625 62.527344 117.988281 C 62.308594 116.734375 62.257812 117.308594 62.554688 116.265625 C 62.875 115.832031 63.480469 115.746094 63.910156 116.066406 C 64.339844 116.386719 64.429688 116.992188 64.109375 117.421875 Z M 64.109375 117.421875 "/>
<path style=" stroke:none;fill-rule:evenodd;fill:rgb(0.784314%,36.862745%,10.980392%);fill-opacity:1;" d="M 99.316406 108.78125 C 101.476562 107.847656 103.546875 106.929688 105.800781 106.851562 C 105.023438 107.984375 103.953125 109.203125 103.394531 109.765625 L 103.4375 109.863281 C 97.773438 112.035156 102.261719 120.027344 113.050781 115.914062 L 111.199219 115.207031 C 110.199219 114.941406 105.828125 114.570312 104.710938 113.339844 C 107.503906 111.882812 112.222656 107.742188 111.421875 104.476562 C 110.199219 99.480469 99.699219 102.371094 96.921875 103.28125 C 95.402344 103.945312 94.707031 105.710938 95.371094 107.230469 C 96.03125 108.75 97.796875 109.445312 99.316406 108.78125 Z M 104.535156 113.089844 C 104.503906 113.023438 104.476562 112.957031 104.464844 112.886719 L 104.492188 112.886719 C 104.53125 112.957031 104.542969 113.023438 104.535156 113.089844 Z M 104.535156 113.089844 "/>
<path style=" stroke:none;fill-rule:evenodd;fill:rgb(0.784314%,36.862745%,10.980392%);fill-opacity:1;" d="M 110.023438 117.074219 C 110.449219 116.980469 111.257812 117.269531 112.132812 117.246094 C 111.867188 115.898438 111.328125 115.601562 110.070312 115.132812 C 109.53125 115.121094 109.089844 115.546875 109.078125 116.082031 C 109.066406 116.617188 109.488281 117.0625 110.023438 117.074219 Z M 110.023438 117.074219 "/>
<path style=" stroke:none;fill-rule:evenodd;fill:rgb(0.784314%,36.862745%,10.980392%);fill-opacity:1;" d="M 108.664062 117.421875 C 109.609375 117.96875 109.085938 117.765625 110.25 117.988281 C 110.464844 116.734375 110.515625 117.308594 110.21875 116.265625 C 109.898438 115.832031 109.292969 115.746094 108.863281 116.066406 C 108.433594 116.386719 108.34375 116.992188 108.664062 117.421875 Z M 108.664062 117.421875 "/>
<path style="fill-rule:evenodd;fill:rgb(0%,45.098039%,12.941176%);fill-opacity:1;stroke-width:41.67;stroke-linecap:butt;stroke-linejoin:miter;stroke:rgb(0.784314%,36.862745%,10.980392%);stroke-opacity:1;stroke-miterlimit:2.61313;" d="M 4870.75145 3112.460938 C 5124.134182 3112.460938 5459.689111 3327.617188 5634.664948 3522.1875 C 5791.921714 3836.510417 5614.288015 4275.898438 5614.288015 4784.791667 C 5614.288015 5223.294271 5766.007571 5692.786458 5655.706347 5959.296875 C 5619.825226 6046.289062 5668.331186 6135.716146 5553.378705 6178.216146 C 5371.315238 6245.507812 5074.299291 6290 4870.75145 6290 C 4695.554124 6290 4449.701997 6233.554688 4255.899646 6176.888021 C 4139.839723 6143.020833 4118.576836 6019.505208 4078.044459 5921.888021 C 3962.427513 5643.645833 4159.109214 5208.020833 4159.109214 4747.161458 C 4159.109214 4298.697917 4030.867429 3785.15625 4138.953769 3484.557292 C 4318.802352 3253.242188 4575.728898 3112.460938 4870.75145 3112.460938 Z M 4870.75145 3112.460938 " transform="matrix(0.0176364,0,0,0.0176471,0,0)"/>
<path style=" stroke:none;fill-rule:evenodd;fill:rgb(18.431373%,63.137255%,30.980392%);fill-opacity:1;" d="M 86.472656 65.359375 C 88.609375 65.359375 91.992188 66.253906 93.324219 70.167969 C 94.496094 73.609375 93.753906 79.742188 93.753906 84.757812 C 93.753906 90.402344 94.515625 96.839844 93.070312 100.386719 C 91.773438 103.566406 88.375 104.15625 86.472656 104.15625 C 84.554688 104.15625 81.25 103.539062 79.949219 100.3125 C 78.523438 96.773438 79.191406 90.367188 79.191406 84.757812 C 79.191406 79.75 78.238281 73.726562 79.40625 70.285156 C 80.738281 66.363281 84.332031 65.359375 86.472656 65.359375 Z M 86.472656 65.359375 "/>
<path style="fill-rule:evenodd;fill:rgb(0%,45.098039%,12.941176%);fill-opacity:1;stroke-width:41.67;stroke-linecap:butt;stroke-linejoin:miter;stroke:rgb(0.784314%,36.862745%,10.980392%);stroke-opacity:1;stroke-miterlimit:2.61313;" d="M 4850.596005 1369.518229 C 5201.655122 1369.518229 5387.262403 1443.893229 5591.253222 1687.161458 C 5744.301707 1869.778646 5963.353737 2182.994792 5963.353737 2435.338542 C 5963.353737 2741.25 5736.328125 2924.088542 5520.81991 3118.658854 C 5321.701836 3298.398438 5145.840045 3501.380208 4850.596005 3501.380208 C 4581.04462 3501.380208 4426.888692 3316.770833 4234.193782 3164.257812 C 3987.677191 2968.580729 3737.838273 2766.041667 3737.838273 2435.338542 C 3737.838273 2140.273438 3915.250483 1838.346354 4117.469394 1645.325521 C 4318.802352 1453.411458 4544.056057 1369.518229 4850.596005 1369.518229 Z M 4850.596005 1369.518229 " transform="matrix(0.0176364,0,0,0.0176471,0,0)"/>
</g>
</svg>
