<?xml version="1.0" encoding="UTF-8"?>
<svg xmlns="http://www.w3.org/2000/svg" xmlns:xlink="http://www.w3.org/1999/xlink" width="194px" height="150px" viewBox="0 0 194 150" version="1.1">
<g id="surface1">
<path style=" stroke:none;fill-rule:evenodd;fill:rgb(83.529412%,31.372549%,90.196078%);fill-opacity:1;" d="M 83.546875 106.136719 C 80.320312 110.726562 75.734375 111.296875 70.367188 110.492188 C 67.925781 110.125 69.03125 109.890625 68.152344 110.097656 C 67.738281 109.757812 67.949219 109.988281 67.605469 109.34375 C 67.792969 108.640625 67.640625 108.910156 67.960938 108.484375 L 67.777344 108.527344 L 69.367188 106.933594 C 70.722656 105.847656 76.277344 103.730469 75.613281 102.285156 C 76.675781 100.089844 79.3125 99.175781 81.503906 100.242188 C 83.695312 101.304688 84.609375 103.945312 83.546875 106.136719 Z M 83.546875 106.136719 "/>
<path style=" stroke:none;fill-rule:evenodd;fill:rgb(83.529412%,31.372549%,90.196078%);fill-opacity:1;" d="M 106.90625 100.949219 C 110.382812 105.570312 111.9375 105.007812 114.191406 107.613281 L 115.222656 109.128906 C 115.101562 109.410156 114.75 109.148438 114.28125 109.496094 C 114.246094 109.503906 114.179688 109.527344 114.277344 109.503906 C 114.261719 109.515625 114.242188 109.527344 114.226562 109.542969 C 114.328125 109.496094 114.3125 109.492188 114.28125 109.496094 L 114.277344 109.503906 C 114.34375 109.484375 114.484375 109.441406 114.757812 109.355469 L 115.929688 110.730469 L 115.800781 111.03125 L 115.792969 111.035156 L 115.777344 111.003906 C 115.742188 110.992188 114.976562 111.179688 114.683594 111.25 L 114.953125 111.5625 C 115.628906 111.351562 115.21875 111.464844 115.472656 111.382812 C 114.480469 112.144531 113.242188 111.292969 111.949219 111.101562 C 106.046875 110.21875 106.601562 111.101562 100.773438 107.289062 C 99.023438 105.59375 98.980469 102.800781 100.671875 101.050781 C 102.367188 99.300781 105.15625 99.253906 106.90625 100.949219 Z M 113.886719 110.3125 C 113.890625 110.21875 113.898438 110.085938 113.90625 109.898438 L 113.78125 110.191406 Z M 113.886719 110.3125 "/>
<path style=" stroke:none;fill-rule:evenodd;fill:rgb(88.627451%,41.568627%,94.901961%);fill-opacity:1;" d="M 124.058594 74.1875 C 124.058594 53.210938 110.035156 36.207031 92.734375 36.207031 C 75.433594 36.207031 61.410156 53.210938 61.410156 74.1875 C 61.410156 95.164062 75.433594 112.171875 92.734375 112.171875 C 110.035156 112.171875 124.058594 95.164062 124.058594 74.1875 Z M 124.058594 74.1875 "/>
<path style=" stroke:none;fill-rule:evenodd;fill:rgb(88.627451%,41.568627%,94.901961%);fill-opacity:1;" d="M 91.867188 111.210938 L 91.863281 111.214844 C 95.140625 111.261719 94.976562 107.964844 96.621094 109.230469 C 100.839844 112.484375 99.507812 110.285156 101.191406 108.757812 C 102 108.027344 105.796875 108.683594 106.300781 106.296875 C 106.980469 103.039062 109.265625 103.199219 111.394531 102.550781 C 110.699219 99.878906 114.5 99.023438 116.414062 98.050781 C 116.386719 97.996094 116.351562 97.933594 116.3125 97.863281 C 113.550781 92.972656 118.792969 92.246094 120.15625 91.597656 L 120.007812 91.265625 C 117.609375 86.558594 116.59375 84.277344 121.25 80.914062 C 120.863281 80.054688 120.460938 79.523438 119.980469 78.617188 C 117.605469 74.183594 119.304688 73.46875 120.519531 71.9375 C 120.023438 71.484375 119.523438 70.945312 119.523438 70.945312 C 117.859375 68.773438 119.277344 67.0625 120.445312 65.714844 C 119.34375 65.085938 118.324219 64.457031 117.660156 63.144531 C 116.445312 60.75 117.441406 59.484375 118.269531 58.101562 C 116.390625 56.984375 113.933594 56.40625 112.636719 54.421875 C 111.21875 52.246094 111.996094 51.085938 112.640625 49.578125 L 112.488281 49.511719 C 109.640625 48.324219 108.082031 47.09375 108.039062 44.742188 C 106.050781 45.304688 103.671875 45.660156 101.996094 44.679688 C 100.441406 43.773438 99.941406 42.75 99.8125 41.664062 C 96.925781 42.664062 94.703125 41.511719 92.476562 38.996094 C 90.972656 39.414062 89.503906 39.363281 87.574219 39.015625 C 86.011719 40.605469 84.5 41.484375 82.566406 41.402344 C 82.226562 42.335938 81.796875 42.945312 80.730469 44.121094 L 80.808594 43.953125 C 79.640625 45.542969 77.96875 45.152344 75.742188 45.078125 C 75.429688 46.054688 75.191406 46.515625 74.097656 48.113281 C 72.199219 50.890625 73.046875 49.410156 71.203125 52.695312 C 68.664062 57.214844 68.339844 56.078125 66.089844 57.453125 C 66.039062 61.375 68.34375 68.058594 62.8125 69.683594 C 62.941406 70.566406 63.371094 71.753906 63.523438 72.1875 C 64.960938 76.273438 67.589844 78.976562 64.390625 81.71875 C 65.476562 83.703125 71.050781 87.515625 66.738281 91.40625 C 68.230469 93.792969 71.578125 94.976562 71.667969 98.054688 C 71.773438 101.507812 78.730469 100.613281 77.757812 103.707031 C 78.605469 105.351562 80.828125 105.847656 82.304688 106.566406 C 84.625 107.695312 84.769531 109.027344 86.070312 110.632812 L 86.066406 110.644531 C 86.808594 110.414062 89.140625 109.613281 89.886719 109.949219 C 90.429688 110.195312 89.855469 110.34375 91.867188 111.210938 Z M 91.644531 111.265625 L 91.628906 111.269531 C 91.640625 111.277344 91.652344 111.285156 91.660156 111.289062 C 91.65625 111.28125 91.652344 111.273438 91.644531 111.265625 Z M 91.246094 111.355469 C 89.515625 111.722656 90.214844 111.214844 89.421875 110.914062 C 89.457031 110.957031 89.460938 110.957031 89.507812 110.984375 L 89.507812 110.992188 C 85.613281 112.199219 86.34375 113.796875 83.488281 110.476562 C 81.25 107.875 75.816406 108.042969 74.738281 104.378906 C 71.1875 103.402344 68.300781 102.046875 67.894531 97.941406 C 67.894531 97.960938 67.921875 98.179688 67.914062 98.226562 C 65.769531 95.542969 59.554688 93.125 63.699219 88.234375 C 63.113281 87.636719 60.292969 84.394531 59.992188 83.835938 C 58.863281 81.722656 59.234375 80.015625 60.511719 78.550781 C 58.667969 74.25 54.070312 66.363281 60.617188 64.386719 L 60.523438 61.945312 C 59.785156 55.820312 58.632812 54.148438 64.707031 51.097656 C 64.84375 51.03125 67.289062 46.136719 67.589844 45.671875 C 69.890625 42.152344 68.613281 43.976562 69.902344 40.851562 C 70.925781 38.378906 73.664062 38.0625 76.136719 38.074219 C 76.816406 35.777344 77.53125 33.304688 81.089844 33.648438 C 81.527344 33.691406 81.890625 33.796875 82.261719 33.917969 C 85.371094 30.703125 85.582031 31.574219 89.914062 31.679688 C 91.902344 31.726562 93.515625 28.15625 97.929688 33.421875 C 98.003906 33.511719 98.089844 33.621094 98.183594 33.738281 C 102.679688 31.445312 106.5625 33.011719 107.355469 37.203125 C 109.675781 36.683594 111.351562 36.378906 114.347656 39.074219 C 116.167969 40.71875 115.964844 41.960938 115.660156 43.183594 C 118.425781 44.664062 120.890625 46.578125 119.734375 50.507812 C 119.648438 50.789062 119.574219 51.019531 119.5 51.21875 C 122.25 52.738281 127.519531 55.410156 124.34375 60.578125 C 125.394531 61.332031 126.6875 62.671875 127.03125 63.535156 C 127.78125 65.414062 127.09375 67.335938 125.875 68.824219 C 127.714844 71.078125 126.957031 73.269531 124.707031 75.691406 C 125.730469 78.34375 129.074219 82.308594 124.390625 85.140625 C 123.203125 85.855469 123.921875 85.40625 123.085938 86.070312 C 122.976562 87.175781 128.761719 94.640625 120.390625 96.410156 C 120.960938 97.605469 121.65625 99.179688 119.9375 100.671875 C 118.34375 102.054688 116.960938 102.15625 115.304688 102.792969 C 115.667969 106.808594 109.886719 105.621094 109.464844 106.871094 C 108.453125 109.882812 105.703125 111.214844 102.691406 111 C 101.476562 112.488281 100.535156 114.015625 98 112.6875 C 97.089844 112.210938 96.476562 111.582031 95.8125 110.878906 C 94.648438 111.707031 93.839844 112.90625 91.464844 111.824219 C 91.339844 111.777344 91.265625 111.644531 91.164062 111.417969 C 91.195312 111.394531 91.222656 111.375 91.246094 111.355469 Z M 63.839844 88.074219 C 63.875 88.035156 63.871094 88.046875 63.882812 87.996094 C 63.863281 88.023438 63.851562 88.050781 63.839844 88.074219 Z M 61.183594 64.238281 C 61.25 64.222656 61.316406 64.207031 61.382812 64.191406 C 61.3125 64.199219 61.246094 64.214844 61.183594 64.238281 Z M 82.808594 34.09375 L 82.871094 34.113281 C 82.851562 34.105469 82.828125 34.097656 82.808594 34.09375 Z M 118.21875 50.417969 C 118.191406 50.390625 118.167969 50.367188 118.140625 50.34375 C 118.164062 50.367188 118.191406 50.390625 118.21875 50.417969 Z M 115.078125 101.667969 C 115.066406 101.625 115.054688 101.582031 115.039062 101.539062 C 115.050781 101.582031 115.066406 101.625 115.078125 101.667969 Z M 120.378906 91.460938 C 120.394531 91.449219 120.410156 91.433594 120.421875 91.417969 C 120.40625 91.433594 120.390625 91.445312 120.378906 91.460938 Z M 121.6875 80.605469 C 121.746094 80.566406 121.800781 80.527344 121.859375 80.488281 C 121.796875 80.496094 121.742188 80.542969 121.6875 80.605469 Z M 118.683594 57.339844 C 118.695312 57.308594 118.710938 57.277344 118.726562 57.246094 C 118.710938 57.277344 118.695312 57.308594 118.683594 57.339844 Z M 112.941406 48.789062 L 112.957031 48.734375 C 112.953125 48.753906 112.945312 48.769531 112.941406 48.789062 Z M 95.234375 37.761719 C 95.28125 37.734375 95.332031 37.707031 95.382812 37.675781 C 95.332031 37.703125 95.28125 37.734375 95.234375 37.761719 Z M 76.265625 43.378906 C 76.328125 43.21875 76.378906 43.046875 76.433594 42.863281 C 76.375 43.046875 76.316406 43.21875 76.265625 43.378906 Z M 62.777344 69.167969 C 62.789062 69.125 62.796875 69.078125 62.792969 69.03125 C 62.785156 69.074219 62.78125 69.121094 62.777344 69.167969 Z M 66.648438 91.253906 C 66.644531 91.242188 66.640625 91.230469 66.632812 91.214844 L 66.628906 91.226562 Z M 77.714844 103.617188 C 77.707031 103.589844 77.699219 103.570312 77.683594 103.550781 C 77.691406 103.570312 77.703125 103.59375 77.714844 103.617188 Z M 86.042969 110.652344 C 86.003906 110.652344 85.996094 110.652344 85.949219 110.667969 L 85.953125 110.679688 C 85.980469 110.671875 86.007812 110.664062 86.042969 110.652344 Z M 86.042969 110.652344 "/>
</g>
</svg>
