<?xml version="1.0" encoding="UTF-8"?>
<svg xmlns="http://www.w3.org/2000/svg" xmlns:xlink="http://www.w3.org/1999/xlink" width="194px" height="150px" viewBox="0 0 194 150" version="1.1">
<g id="surface1">
<path style="fill-rule:evenodd;fill:rgb(10.196078%,10.196078%,10.196078%);fill-opacity:1;stroke-width:41.67;stroke-linecap:butt;stroke-linejoin:miter;stroke:rgb(10.196078%,10.196078%,10.196078%);stroke-opacity:1;stroke-miterlimit:2.61313;" d="M 1521.182345 4607.96875 L 1767.125081 4607.96875 L 1767.125081 6019.0625 L 1521.182345 6019.0625 Z M 1521.182345 4607.96875 " transform="matrix(0.0228235,0,0,0.0136364,0,0)"/>
<path style="fill-rule:evenodd;fill:rgb(10.196078%,10.196078%,10.196078%);fill-opacity:1;stroke-width:41.67;stroke-linecap:butt;stroke-linejoin:miter;stroke:rgb(10.196078%,10.196078%,10.196078%);stroke-opacity:1;stroke-miterlimit:2.61313;" d="M 1767.125081 4956.588542 L 2002.285358 4956.588542 L 2002.285358 6431.5625 L 1767.125081 6431.5625 Z M 1767.125081 4956.588542 " transform="matrix(0.0228235,0,0,0.0136364,0,0)"/>
<path style="fill-rule:evenodd;fill:rgb(10.196078%,10.196078%,10.196078%);fill-opacity:1;stroke-width:41.67;stroke-linecap:butt;stroke-linejoin:miter;stroke:rgb(10.196078%,10.196078%,10.196078%);stroke-opacity:1;stroke-miterlimit:2.61313;" d="M 2002.285358 5217.265625 L 2248.056943 5217.265625 L 2248.056943 6788.489583 L 2002.285358 6788.489583 Z M 2002.285358 5217.265625 " transform="matrix(0.0228235,0,0,0.0136364,0,0)"/>
<path style="fill-rule:evenodd;fill:rgb(10.196078%,10.196078%,10.196078%);fill-opacity:1;stroke-width:41.67;stroke-linecap:butt;stroke-linejoin:miter;stroke:rgb(10.196078%,10.196078%,10.196078%);stroke-opacity:1;stroke-miterlimit:2.61313;" d="M 2248.056943 5503.151042 L 2493.999678 5503.151042 L 2493.999678 7085.260417 L 2248.056943 7085.260417 Z M 2248.056943 5503.151042 " transform="matrix(0.0228235,0,0,0.0136364,0,0)"/>
<path style="fill-rule:evenodd;fill:rgb(10.196078%,10.196078%,10.196078%);fill-opacity:1;stroke-width:41.67;stroke-linecap:butt;stroke-linejoin:miter;stroke:rgb(10.196078%,10.196078%,10.196078%);stroke-opacity:1;stroke-miterlimit:2.61313;" d="M 2493.999678 5503.151042 L 2750.553721 5503.151042 L 2750.553721 7395.208333 L 2493.999678 7395.208333 Z M 2493.999678 5503.151042 " transform="matrix(0.0228235,0,0,0.0136364,0,0)"/>
<path style="fill-rule:evenodd;fill:rgb(10.196078%,10.196078%,10.196078%);fill-opacity:1;stroke-width:41.67;stroke-linecap:butt;stroke-linejoin:miter;stroke:rgb(10.196078%,10.196078%,10.196078%);stroke-opacity:1;stroke-miterlimit:2.61313;" d="M 2744.392316 5205.520833 L 2983.317896 5205.520833 L 2983.317896 8298.125 L 2744.392316 8298.125 Z M 2744.392316 5205.520833 " transform="matrix(0.0228235,0,0,0.0136364,0,0)"/>
<path style="fill-rule:evenodd;fill:rgb(10.196078%,10.196078%,10.196078%);fill-opacity:1;stroke-width:41.67;stroke-linecap:butt;stroke-linejoin:miter;stroke:rgb(10.196078%,10.196078%,10.196078%);stroke-opacity:1;stroke-miterlimit:2.61313;" d="M 2983.317896 8059.21875 L 3222.414626 8059.21875 L 3222.414626 8298.125 L 2983.317896 8298.125 Z M 2983.317896 8059.21875 " transform="matrix(0.0228235,0,0,0.0136364,0,0)"/>
<path style="fill-rule:evenodd;fill:rgb(10.196078%,10.196078%,10.196078%);fill-opacity:1;stroke-width:41.67;stroke-linecap:butt;stroke-linejoin:miter;stroke:rgb(10.196078%,10.196078%,10.196078%);stroke-opacity:1;stroke-miterlimit:2.61313;" d="M 2983.146746 4938.541667 L 3298.918734 4938.541667 L 3298.918734 7785.078125 L 2983.146746 7785.078125 Z M 2983.146746 4938.541667 " transform="matrix(0.0228235,0,0,0.0136364,0,0)"/>
<path style="fill-rule:evenodd;fill:rgb(10.196078%,10.196078%,10.196078%);fill-opacity:1;stroke-width:41.67;stroke-linecap:butt;stroke-linejoin:miter;stroke:rgb(10.196078%,10.196078%,10.196078%);stroke-opacity:1;stroke-miterlimit:2.61313;" d="M 3297.207233 4650.9375 L 3625.98663 4650.9375 L 3625.98663 7525.546875 L 3297.207233 7525.546875 Z M 3297.207233 4650.9375 " transform="matrix(0.0228235,0,0,0.0136364,0,0)"/>
<path style="fill-rule:evenodd;fill:rgb(10.196078%,10.196078%,10.196078%);fill-opacity:1;stroke-width:41.67;stroke-linecap:butt;stroke-linejoin:miter;stroke:rgb(10.196078%,10.196078%,10.196078%);stroke-opacity:1;stroke-miterlimit:2.61313;" d="M 3623.077078 4400 L 3861.489207 4400 L 3861.489207 7266.588542 L 3623.077078 7266.588542 Z M 3623.077078 4400 " transform="matrix(0.0228235,0,0,0.0136364,0,0)"/>
<path style="fill-rule:evenodd;fill:rgb(10.196078%,10.196078%,10.196078%);fill-opacity:1;stroke-width:41.67;stroke-linecap:butt;stroke-linejoin:miter;stroke:rgb(10.196078%,10.196078%,10.196078%);stroke-opacity:1;stroke-miterlimit:2.61313;" d="M 3862.173808 2939.348958 L 4170.41519 2939.348958 L 4170.41519 7519.244792 L 3862.173808 7519.244792 Z M 3862.173808 2939.348958 " transform="matrix(0.0228235,0,0,0.0136364,0,0)"/>
<path style="fill-rule:evenodd;fill:rgb(10.196078%,10.196078%,10.196078%);fill-opacity:1;stroke-width:41.67;stroke-linecap:butt;stroke-linejoin:miter;stroke:rgb(10.196078%,10.196078%,10.196078%);stroke-opacity:1;stroke-miterlimit:2.61313;" d="M 4171.613241 2595.885417 L 4427.140383 2595.885417 L 4427.140383 8285.520833 L 4171.613241 8285.520833 Z M 4171.613241 2595.885417 " transform="matrix(0.0228235,0,0,0.0136364,0,0)"/>
<path style="fill-rule:evenodd;fill:rgb(10.196078%,10.196078%,10.196078%);fill-opacity:1;stroke-width:41.67;stroke-linecap:butt;stroke-linejoin:miter;stroke:rgb(10.196078%,10.196078%,10.196078%);stroke-opacity:1;stroke-miterlimit:2.61313;" d="M 4426.969233 2595.885417 L 4691.396182 2595.885417 L 4691.396182 6977.838542 L 4426.969233 6977.838542 Z M 4426.969233 2595.885417 " transform="matrix(0.0228235,0,0,0.0136364,0,0)"/>
<path style="fill-rule:evenodd;fill:rgb(10.196078%,10.196078%,10.196078%);fill-opacity:1;stroke-width:41.67;stroke-linecap:butt;stroke-linejoin:miter;stroke:rgb(10.196078%,10.196078%,10.196078%);stroke-opacity:1;stroke-miterlimit:2.61313;" d="M 4691.396182 2595.885417 L 4985.260954 2595.885417 L 4985.260954 6684.21875 L 4691.396182 6684.21875 Z M 4691.396182 2595.885417 " transform="matrix(0.0228235,0,0,0.0136364,0,0)"/>
<path style="fill-rule:evenodd;fill:rgb(10.196078%,10.196078%,10.196078%);fill-opacity:1;stroke-width:41.67;stroke-linecap:butt;stroke-linejoin:miter;stroke:rgb(10.196078%,10.196078%,10.196078%);stroke-opacity:1;stroke-miterlimit:2.61313;" d="M 4985.260954 2595.885417 L 5289.052432 2595.885417 L 5289.052432 6177.760417 L 4985.260954 6177.760417 Z M 4985.260954 2595.885417 " transform="matrix(0.0228235,0,0,0.0136364,0,0)"/>
<path style="fill-rule:evenodd;fill:rgb(10.196078%,10.196078%,10.196078%);fill-opacity:1;stroke-width:41.67;stroke-linecap:butt;stroke-linejoin:miter;stroke:rgb(10.196078%,10.196078%,10.196078%);stroke-opacity:1;stroke-miterlimit:2.61313;" d="M 5289.052432 2595.885417 L 5623.308634 2595.885417 L 5623.308634 4394.84375 L 5289.052432 4394.84375 Z M 5289.052432 2595.885417 " transform="matrix(0.0228235,0,0,0.0136364,0,0)"/>
<path style="fill-rule:evenodd;fill:rgb(10.196078%,10.196078%,10.196078%);fill-opacity:1;stroke-width:41.67;stroke-linecap:butt;stroke-linejoin:miter;stroke:rgb(10.196078%,10.196078%,10.196078%);stroke-opacity:1;stroke-miterlimit:2.61313;" d="M 5623.308634 2595.885417 L 6410.428077 2595.885417 L 6410.428077 3929.0625 L 5623.308634 3929.0625 Z M 5623.308634 2595.885417 " transform="matrix(0.0228235,0,0,0.0136364,0,0)"/>
<path style="fill-rule:evenodd;fill:rgb(10.196078%,10.196078%,10.196078%);fill-opacity:1;stroke-width:41.67;stroke-linecap:butt;stroke-linejoin:miter;stroke:rgb(10.196078%,10.196078%,10.196078%);stroke-opacity:1;stroke-miterlimit:2.61313;" d="M 6403.924372 2933.90625 L 6728.082716 2933.90625 L 6728.082716 3926.484375 L 6403.924372 3926.484375 Z M 6403.924372 2933.90625 " transform="matrix(0.0228235,0,0,0.0136364,0,0)"/>
<path style="fill-rule:evenodd;fill:rgb(10.196078%,10.196078%,10.196078%);fill-opacity:1;stroke-width:41.67;stroke-linecap:butt;stroke-linejoin:miter;stroke:rgb(10.196078%,10.196078%,10.196078%);stroke-opacity:1;stroke-miterlimit:2.61313;" d="M 5623.308634 4146.484375 L 6193.923164 4146.484375 L 6193.923164 4395.989583 L 5623.308634 4395.989583 Z M 5623.308634 4146.484375 " transform="matrix(0.0228235,0,0,0.0136364,0,0)"/>
<path style="fill-rule:evenodd;fill:rgb(10.196078%,10.196078%,10.196078%);fill-opacity:1;stroke-width:41.67;stroke-linecap:butt;stroke-linejoin:miter;stroke:rgb(10.196078%,10.196078%,10.196078%);stroke-opacity:1;stroke-miterlimit:2.61313;" d="M 4427.140383 8056.640625 L 4665.894813 8056.640625 L 4665.894813 8288.385417 L 4427.140383 8288.385417 Z M 4427.140383 8056.640625 " transform="matrix(0.0228235,0,0,0.0136364,0,0)"/>
<path style="fill-rule:evenodd;fill:rgb(10.196078%,10.196078%,10.196078%);fill-opacity:1;stroke-width:41.67;stroke-linecap:butt;stroke-linejoin:miter;stroke:rgb(10.196078%,10.196078%,10.196078%);stroke-opacity:1;stroke-miterlimit:2.61313;" d="M 5289.052432 5222.708333 L 5912.038901 5222.708333 L 5912.038901 5516.614583 L 5289.052432 5516.614583 Z M 5289.052432 5222.708333 " transform="matrix(0.0228235,0,0,0.0136364,0,0)"/>
<path style="fill-rule:evenodd;fill:rgb(10.196078%,10.196078%,10.196078%);fill-opacity:1;stroke-width:41.67;stroke-linecap:butt;stroke-linejoin:miter;stroke:rgb(10.196078%,10.196078%,10.196078%);stroke-opacity:1;stroke-miterlimit:2.61313;" d="M 5620.741382 5516.614583 L 5912.038901 5516.614583 L 5912.038901 5822.265625 L 5620.741382 5822.265625 Z M 5620.741382 5516.614583 " transform="matrix(0.0228235,0,0,0.0136364,0,0)"/>
</g>
</svg>
