<?xml version="1.0" encoding="UTF-8"?>
<svg xmlns="http://www.w3.org/2000/svg" xmlns:xlink="http://www.w3.org/1999/xlink" width="194px" height="150px" viewBox="0 0 194 150" version="1.1">
<g id="surface1">
<path style="fill-rule:evenodd;fill:rgb(100%,82.352941%,52.156863%);fill-opacity:1;stroke-width:41.67;stroke-linecap:butt;stroke-linejoin:miter;stroke:rgb(83.921569%,63.137255%,27.058824%);stroke-opacity:1;stroke-miterlimit:2.61313;" d="M 4722.35422 694.830729 L 6418.95538 694.830729 L 6418.95538 2298.763021 L 4722.35422 2298.763021 Z M 4722.35422 694.830729 " transform="matrix(0.0176364,0,0,0.0176471,0,0)"/>
<path style="fill-rule:evenodd;fill:rgb(100%,82.352941%,52.156863%);fill-opacity:1;stroke-width:41.67;stroke-linecap:butt;stroke-linejoin:miter;stroke:rgb(83.921569%,63.137255%,27.058824%);stroke-opacity:1;stroke-miterlimit:2.61313;" d="M 5209.185728 2298.763021 L 5959.588434 2298.763021 L 5959.588434 2513.697917 L 5209.185728 2513.697917 Z M 5209.185728 2298.763021 " transform="matrix(0.0176364,0,0,0.0176471,0,0)"/>
<path style="fill-rule:evenodd;fill:rgb(3.921569%,3.921569%,49.019608%);fill-opacity:1;stroke-width:41.67;stroke-linecap:butt;stroke-linejoin:miter;stroke:rgb(4.705882%,4.705882%,27.843137%);stroke-opacity:1;stroke-miterlimit:2.61313;" d="M 4783.263531 2513.476562 L 6405.887564 2513.476562 L 6405.887564 5474.752604 L 4783.263531 5474.752604 Z M 4783.263531 2513.476562 " transform="matrix(0.0176364,0,0,0.0176471,0,0)"/>
<path style="fill-rule:evenodd;fill:rgb(100%,82.352941%,52.156863%);fill-opacity:1;stroke-width:41.67;stroke-linecap:butt;stroke-linejoin:miter;stroke:rgb(83.921569%,63.137255%,27.058824%);stroke-opacity:1;stroke-miterlimit:2.61313;" d="M 4336.964401 2665.768229 L 4783.263531 2665.768229 L 4783.263531 5089.596354 L 4336.964401 5089.596354 Z M 4336.964401 2665.768229 " transform="matrix(0.0176364,0,0,0.0176471,0,0)"/>
<path style="fill-rule:evenodd;fill:rgb(100%,82.352941%,52.156863%);fill-opacity:1;stroke-width:41.67;stroke-linecap:butt;stroke-linejoin:miter;stroke:rgb(83.921569%,63.137255%,27.058824%);stroke-opacity:1;stroke-miterlimit:2.61313;" d="M 6416.076031 2665.768229 L 6862.153673 2665.768229 L 6862.153673 5089.596354 L 6416.076031 5089.596354 Z M 6416.076031 2665.768229 " transform="matrix(0.0176364,0,0,0.0176471,0,0)"/>
<path style="fill-rule:evenodd;fill:rgb(14.117647%,10.588235%,2.352941%);fill-opacity:1;stroke-width:41.67;stroke-linecap:butt;stroke-linejoin:miter;stroke:rgb(10.196078%,5.098039%,1.960784%);stroke-opacity:1;stroke-miterlimit:2.61313;" d="M 4788.357764 5474.752604 L 5591.47471 5474.752604 L 5591.47471 7982.916667 L 4788.357764 7982.916667 Z M 4788.357764 5474.752604 " transform="matrix(0.0176364,0,0,0.0176471,0,0)"/>
<path style="fill-rule:evenodd;fill:rgb(14.117647%,10.588235%,2.352941%);fill-opacity:1;stroke-width:41.67;stroke-linecap:butt;stroke-linejoin:miter;stroke:rgb(10.196078%,5.098039%,1.960784%);stroke-opacity:1;stroke-miterlimit:2.61313;" d="M 5595.018524 5474.752604 L 6398.356959 5474.752604 L 6398.356959 7982.916667 L 5595.018524 7982.916667 Z M 5595.018524 5474.752604 " transform="matrix(0.0176364,0,0,0.0176471,0,0)"/>
<path style="fill-rule:evenodd;fill:rgb(58.039216%,25.098039%,0%);fill-opacity:1;stroke-width:41.67;stroke-linecap:butt;stroke-linejoin:miter;stroke:rgb(58.039216%,25.098039%,0%);stroke-opacity:1;stroke-miterlimit:2.61313;" d="M 4722.35422 694.830729 L 6418.95538 694.830729 L 6418.95538 910.208333 L 4722.35422 910.208333 Z M 4722.35422 694.830729 " transform="matrix(0.0176364,0,0,0.0176471,0,0)"/>
<path style=" stroke:none;fill-rule:evenodd;fill:rgb(58.039216%,25.098039%,0%);fill-opacity:1;" d="M 82.933594 12.613281 L 86.941406 12.613281 L 86.941406 19.382812 L 82.933594 19.382812 Z M 82.933594 12.613281 "/>
<path style=" stroke:none;fill-rule:evenodd;fill:rgb(58.039216%,25.098039%,0%);fill-opacity:1;" d="M 109.632812 12.4375 L 113.5625 12.4375 L 113.5625 22.585938 L 109.632812 22.585938 Z M 109.632812 12.4375 "/>
<path style=" stroke:none;fill-rule:evenodd;fill:rgb(58.039216%,25.098039%,0%);fill-opacity:1;" d="M 106.332031 12.4375 L 109.8125 12.4375 L 109.8125 19.617188 L 106.332031 19.617188 Z M 106.332031 12.4375 "/>
<path style="fill-rule:evenodd;fill:rgb(3.921569%,3.921569%,49.019608%);fill-opacity:1;stroke-width:41.67;stroke-linecap:butt;stroke-linejoin:miter;stroke:rgb(4.705882%,4.705882%,27.843137%);stroke-opacity:1;stroke-miterlimit:2.61313;" d="M 4336.964401 2665.768229 L 4788.800741 2665.768229 L 4788.800741 3461.757812 L 4336.964401 3461.757812 Z M 4336.964401 2665.768229 " transform="matrix(0.0176364,0,0,0.0176471,0,0)"/>
<path style="fill-rule:evenodd;fill:rgb(3.921569%,3.921569%,49.019608%);fill-opacity:1;stroke-width:41.67;stroke-linecap:butt;stroke-linejoin:miter;stroke:rgb(4.705882%,4.705882%,27.843137%);stroke-opacity:1;stroke-miterlimit:2.61313;" d="M 6410.538821 2665.768229 L 6862.153673 2665.768229 L 6862.153673 3444.270833 L 6410.538821 3444.270833 Z M 6410.538821 2665.768229 " transform="matrix(0.0176364,0,0,0.0176471,0,0)"/>
</g>
</svg>
